<?xml version="1.0" standalone="no"?>
<!DOCTYPE svg PUBLIC "-//W3C//DTD SVG 20010904//EN"
 "http://www.w3.org/TR/2001/REC-SVG-20010904/DTD/svg10.dtd">
<svg version="1.0" xmlns="http://www.w3.org/2000/svg"
 width="817.000000pt" height="817.000000pt" viewBox="0 0 817.000000 817.000000"
 preserveAspectRatio="xMidYMid meet">
<metadata>
Created by potrace 1.14, written by Peter Selinger 2001-2017
</metadata>
<g transform="translate(0.000000,817.000000) scale(0.100000,-0.100000)"
fill="#000000" stroke="none">
<path d="M1639 6177 c-161 -122 -327 -268 -450 -393 -88 -92 -137 -149 -282
-334 -36 -45 -128 -199 -178 -296 -106 -208 -158 -405 -166 -629 -13 -354 115
-704 378 -1031 135 -168 436 -447 447 -415 2 6 -10 44 -26 84 -89 213 -122
383 -129 657 -8 318 17 526 102 856 60 230 173 554 174 499 0 -11 -8 -74 -19
-140 -26 -158 -76 -551 -94 -745 -23 -245 -28 -415 -17 -554 17 -196 38 -254
61 -163 59 230 114 358 211 487 151 201 351 334 614 410 139 41 143 44 126
112 -55 217 -155 412 -331 639 -188 243 -285 483 -320 788 -7 56 -10 120 -7
140 5 40 -6 71 -26 71 -7 0 -37 -20 -68 -43z"/>
<path d="M2705 4990 c-147 -34 -361 -117 -371 -145 -4 -10 67 -194 83 -215 5
-6 18 4 124 97 51 46 95 81 97 78 3 -2 -22 -33 -56 -67 -133 -139 -162 -184
-132 -203 6 -4 59 -8 118 -10 59 -2 142 -11 186 -19 43 -9 82 -13 86 -11 25
16 45 380 26 478 -7 35 -9 37 -44 36 -20 0 -73 -9 -117 -19z"/>
<path d="M2487 4450 c-418 -66 -726 -280 -886 -615 -154 -322 -145 -610 28
-891 57 -92 145 -185 202 -214 62 -32 209 -29 209 5 0 7 -21 35 -46 61 -168
177 -264 403 -264 621 1 298 149 572 404 745 81 56 225 122 321 149 149 40
389 37 480 -7 l30 -14 -35 5 c-304 40 -561 -17 -771 -170 -67 -50 -174 -166
-229 -250 -210 -323 -163 -729 119 -1014 89 -90 143 -116 243 -116 91 0 121
16 155 86 31 62 29 99 -18 246 -47 148 -61 281 -39 374 18 78 78 187 130 238
146 143 321 176 540 101 118 -40 231 -50 279 -26 62 33 91 115 70 202 -52 211
-244 379 -529 464 -85 26 -291 36 -393 20z"/>
<path d="M2740 3696 c-94 -26 -158 -77 -177 -140 -8 -24 -12 -176 -13 -451
l-1 -415 119 0 119 0 6 128 c4 70 7 259 7 420 0 183 4 301 10 313 8 14 21 19
49 19 73 0 71 15 71 -457 l0 -420 106 -6 c58 -3 111 -4 119 -1 12 5 15 77 17
428 2 341 6 426 17 439 15 19 62 22 92 7 18 -10 19 -26 19 -445 l0 -435 118 0
119 0 7 426 c6 417 6 428 -14 469 -37 76 -131 124 -260 132 -63 4 -87 1 -148
-20 l-72 -25 -57 24 c-66 27 -176 31 -253 10z"/>
<path d="M3937 3689 c-76 -18 -135 -59 -165 -114 -14 -26 -17 -89 -20 -463
l-4 -433 122 3 122 3 2 65 c1 36 3 122 4 193 l2 127 65 0 65 0 0 -195 0 -195
120 0 120 0 2 422 c3 444 1 467 -42 513 -25 27 -90 60 -145 74 -48 13 -194 13
-248 0z m180 -141 c10 -8 13 -56 13 -179 l0 -169 -65 0 -65 0 0 163 c0 166 4
187 40 200 19 7 61 -1 77 -15z"/>
<path d="M6262 3676 c-69 -17 -141 -63 -167 -106 -19 -34 -20 -53 -23 -464 -3
-348 -1 -430 10 -437 7 -5 61 -9 119 -9 l107 0 7 195 7 195 64 0 64 0 0 -195
0 -195 120 0 120 0 1 418 c1 229 0 428 -1 442 -9 121 -233 203 -428 156z m170
-143 c16 -14 18 -34 18 -180 l0 -163 -65 0 -65 0 0 164 c0 159 1 165 22 180
29 21 67 20 90 -1z"/>
<path d="M4602 3603 l3 -68 128 -3 c70 -1 127 -6 127 -10 0 -4 -61 -167 -135
-364 -129 -339 -136 -359 -133 -420 l3 -63 263 -3 263 -2 -3 67 -3 68 -127 3
c-89 2 -128 6 -128 14 0 10 114 317 230 618 49 128 56 213 18 224 -13 3 -132
6 -266 6 l-243 0 3 -67z"/>
<path d="M5340 3595 l0 -65 130 0 c80 0 130 -4 130 -10 0 -9 -74 -206 -216
-577 -45 -120 -54 -152 -54 -208 l0 -65 265 0 265 0 0 65 0 64 -134 3 -134 3
18 50 c10 28 72 193 139 369 105 276 121 326 121 377 l0 59 -265 0 -265 0 0
-65z"/>
<path d="M6920 3502 c0 -82 -3 -305 -7 -496 l-6 -347 124 3 124 3 3 215 c2
118 4 218 5 222 1 4 35 -90 76 -210 40 -119 76 -220 80 -224 7 -8 239 -14 246
-6 3 2 -36 119 -85 260 -50 141 -90 263 -90 271 0 8 43 112 95 232 52 120 95
220 95 222 0 2 -53 3 -118 3 l-119 0 -51 -117 c-28 -65 -69 -156 -91 -203
l-40 -85 0 203 -1 202 -120 0 -120 0 0 -148z"/>
<path d="M2663 2398 c-34 -79 -73 -169 -87 -201 l-26 -58 22 3 c18 2 28 17 48
70 l25 68 80 0 81 0 24 -70 c21 -59 28 -70 47 -70 23 0 23 0 7 38 -8 20 -45
110 -81 200 -36 89 -68 162 -72 162 -3 0 -34 -64 -68 -142z m100 -9 c15 -40
26 -74 23 -76 -2 -2 -31 -3 -64 -1 l-60 3 30 73 c17 39 34 72 37 72 3 0 19
-32 34 -71z"/>
<path d="M7530 2435 l0 -106 -30 16 c-74 38 -151 -2 -165 -87 -9 -48 9 -102
42 -128 31 -24 99 -27 131 -4 20 14 22 14 22 0 0 -9 9 -16 20 -16 19 0 20 7
20 215 0 208 -1 215 -20 215 -19 0 -20 -7 -20 -105z m-17 -136 c27 -33 23
-104 -8 -134 -51 -52 -135 -15 -135 59 0 71 37 110 95 101 17 -3 38 -15 48
-26z"/>
<path d="M3900 2329 l0 -201 86 3 c82 4 87 5 115 37 41 46 41 102 -1 144 l-30
30 20 25 c36 46 20 122 -31 149 -16 8 -56 14 -94 14 l-65 0 0 -201z m157 145
c7 -10 13 -32 13 -49 0 -49 -20 -67 -78 -73 l-52 -5 0 78 0 78 52 -5 c34 -4
56 -12 65 -24z m8 -179 c16 -15 25 -36 25 -55 0 -49 -38 -80 -100 -80 l-50 0
0 80 0 80 50 0 c41 0 56 -5 75 -25z"/>
<path d="M6010 2321 l0 -198 76 -6 c80 -7 94 -5 94 19 0 11 -15 14 -65 14
l-65 0 0 185 c0 178 -1 185 -20 185 -19 0 -20 -7 -20 -199z"/>
<path d="M4714 2476 c-9 -24 4 -48 23 -44 12 2 18 12 18 28 0 29 -32 41 -41
16z"/>
<path d="M6234 2466 c-9 -24 4 -48 23 -44 12 2 18 12 18 28 0 29 -32 41 -41
16z"/>
<path d="M6802 2448 c2 -15 10 -23 23 -23 30 0 27 39 -3 43 -20 3 -23 0 -20
-20z"/>
<path d="M6940 2400 c0 -47 -2 -50 -25 -50 -16 0 -25 -6 -25 -15 0 -9 9 -15
25 -15 l25 0 0 -105 c0 -98 1 -105 20 -105 19 0 20 7 20 104 0 100 1 105 22
108 32 5 35 28 4 28 -24 0 -26 3 -26 50 0 43 -3 50 -20 50 -17 0 -20 -7 -20
-50z"/>
<path d="M2972 2377 c-71 -40 -80 -165 -15 -217 31 -24 99 -27 131 -4 22 15
22 14 22 -25 0 -46 -34 -81 -81 -81 -27 0 -59 22 -59 41 0 5 -12 9 -26 9 -22
0 -24 -3 -19 -22 12 -41 43 -58 102 -58 107 0 123 29 123 225 0 115 -2 135
-15 135 -9 0 -18 -7 -21 -15 -5 -13 -10 -12 -31 5 -29 23 -77 25 -111 7z m107
-43 c26 -21 31 -33 31 -69 0 -54 -23 -84 -72 -91 -81 -14 -121 94 -59 157 36
36 60 37 100 3z"/>
<path d="M3320 2383 c-8 -3 -23 -12 -32 -21 -16 -14 -18 -13 -18 2 0 11 -6 16
-17 14 -16 -3 -18 -17 -18 -123 0 -100 3 -120 15 -120 12 0 16 19 20 87 6 98
23 128 72 128 21 0 28 5 28 20 0 20 -18 25 -50 13z"/>
<path d="M3470 2373 c-41 -21 -80 -76 -80 -112 0 -64 68 -131 133 -131 62 0
126 56 133 117 12 94 -100 170 -186 126z m121 -52 c37 -37 38 -79 3 -120 -21
-26 -33 -31 -67 -31 -45 1 -67 13 -85 47 -32 59 14 133 83 133 27 0 44 -8 66
-29z"/>
<path d="M4515 2368 c-27 -15 -35 -28 -35 -59 0 -30 19 -50 75 -75 41 -20 57
-50 33 -65 -22 -15 -57 -10 -75 10 -17 20 -43 18 -43 -4 0 -45 112 -63 151
-24 14 14 19 30 17 52 -3 28 -10 35 -60 60 -46 22 -58 33 -58 51 0 13 7 27 16
30 15 6 54 -9 65 -26 6 -10 39 0 39 12 0 5 -12 18 -26 29 -29 23 -68 27 -99 9z"/>
<path d="M4924 2370 c-12 -5 -25 -14 -29 -20 -5 -8 -11 -6 -19 6 -27 36 -36 5
-36 -117 0 -109 2 -120 18 -117 14 3 18 18 22 97 6 102 17 121 71 121 49 0 59
-21 59 -126 0 -87 1 -94 20 -94 19 0 20 7 20 101 0 98 -1 101 -29 130 -30 29
-58 35 -97 19z"/>
<path d="M4202 2274 c3 -91 5 -97 31 -120 42 -36 109 -34 148 5 28 28 29 33
29 120 0 84 -1 91 -20 91 -18 0 -20 -7 -20 -85 0 -94 -16 -125 -65 -125 -49 0
-65 31 -65 125 0 80 -1 85 -21 85 -20 0 -21 -4 -17 -96z"/>
<path d="M4714 2357 c-2 -7 -3 -62 -2 -123 2 -89 6 -109 18 -109 12 0 15 22
18 123 2 105 0 122 -13 122 -9 0 -18 -6 -21 -13z"/>
<path d="M5150 2342 c-56 -56 -49 -164 13 -203 45 -28 119 -22 155 14 20 21
24 29 14 39 -9 9 -17 7 -35 -10 -13 -12 -37 -25 -55 -28 -26 -5 -36 -1 -62 24
-53 53 -43 62 65 62 l95 0 0 25 c0 34 -25 82 -49 95 -11 5 -41 10 -66 10 -38
0 -52 -5 -75 -28z m130 -22 c38 -38 27 -50 -49 -50 -39 0 -73 4 -76 10 -3 5 5
21 19 35 31 31 78 33 106 5z"/>
<path d="M5419 2349 c-14 -14 -19 -30 -17 -52 3 -28 11 -36 61 -61 57 -29 69
-50 45 -74 -18 -18 -42 -15 -72 9 -27 21 -46 18 -46 -6 0 -22 41 -45 81 -45
48 0 89 32 89 69 0 33 -21 54 -77 76 -47 19 -59 38 -37 60 21 21 40 19 65 -6
16 -16 23 -18 35 -8 13 10 12 15 -7 36 -29 30 -90 32 -120 2z"/>
<path d="M5629 2349 c-14 -14 -19 -30 -17 -52 3 -27 11 -36 56 -61 58 -31 71
-48 52 -71 -17 -21 -54 -19 -74 4 -19 21 -46 18 -46 -5 0 -22 42 -44 85 -44
110 0 114 121 4 145 -38 9 -55 38 -33 59 21 22 40 20 65 -5 19 -19 23 -19 36
-6 13 13 11 17 -13 36 -35 27 -87 28 -115 0z"/>
<path d="M6426 2349 c-22 -18 -26 -18 -26 -4 0 10 -7 15 -17 13 -16 -3 -18
-17 -18 -123 0 -100 3 -120 15 -120 12 0 16 19 20 91 6 101 17 124 61 124 49
0 59 -21 59 -126 0 -87 1 -94 20 -94 19 0 20 7 20 90 0 99 15 130 63 130 45 0
57 -28 57 -128 0 -85 1 -92 20 -92 19 0 20 7 20 99 0 84 -3 102 -21 125 -16
21 -29 26 -63 26 -23 0 -52 -7 -64 -16 -21 -14 -24 -14 -48 5 -34 27 -64 27
-98 0z"/>
<path d="M6234 2347 c-2 -7 -3 -62 -2 -123 2 -89 6 -109 18 -109 12 0 15 22
18 123 2 105 0 122 -13 122 -9 0 -18 -6 -21 -13z"/>
<path d="M7109 2345 c-30 -16 -59 -70 -59 -109 0 -108 124 -167 202 -97 26 23
30 32 21 42 -9 9 -19 6 -43 -15 -31 -25 -62 -32 -95 -20 -16 6 -45 54 -45 74
0 6 35 10 95 10 l95 0 0 31 c0 47 -56 99 -106 99 -22 -1 -51 -7 -65 -15z m118
-42 c27 -36 17 -43 -61 -43 -70 0 -74 1 -69 20 13 49 100 65 130 23z"/>
<path d="M6800 2230 c0 -113 1 -120 20 -120 19 0 20 7 20 120 0 113 -1 120
-20 120 -19 0 -20 -7 -20 -120z"/>
</g>
</svg>
